<svg xmlns="http://www.w3.org/2000/svg" viewBox="0 0 128 128" role="img" aria-label="Pandurang Online Services icon">
  <rect width="128" height="128" rx="28" fill="#0B1F4D"/>
  <path d="M31 46a45 45 0 0 0-7 38" fill="none" stroke="#fff" stroke-width="5" stroke-linecap="round" opacity=".78"/>
  <path d="M97 46a45 45 0 0 1 7 38" fill="none" stroke="#F97316" stroke-width="5" stroke-linecap="round"/>
  <path d="M64 13c-16 0-29 11-29 25 0 16 20 31 29 47 9-16 29-31 29-47 0-14-13-25-29-25Z" fill="#F97316"/>
  <circle cx="64" cy="37" r="8" fill="#fff"/>
  <path d="M43 14c12-8 30-8 42 0" fill="none" stroke="#F97316" stroke-width="7" stroke-linecap="round"/>
  <path d="M51 27c8-6 18-6 26 0" fill="none" stroke="#F97316" stroke-width="6" stroke-linecap="round"/>
  <path d="M64 58 47 75l11 13v19h12V88l11-13-17-17Z" fill="#fff"/>
  <path d="m47 75-16 16 13 13 14-16" fill="none" stroke="#fff" stroke-width="11" stroke-linecap="round" stroke-linejoin="round"/>
  <path d="m81 75 16 16-13 13-14-16" fill="none" stroke="#fff" stroke-width="11" stroke-linecap="round" stroke-linejoin="round"/>
  <path d="M44 116h40" fill="none" stroke="#F97316" stroke-width="7" stroke-linecap="round"/>
</svg>
